# xmcd
#
# Track frame offsets:
# 187
# 17762
# 33185
# 49155
# 66792
# 85670
# 101515
# 117785
# 138525
# 157960
# 172712
# 191252
# 208165
# 225610
#
# Disc length: 3225 seconds
#
#
# Revision: 0
# Processed by: cddbd v1.5PL3 Copyright (c) Steve Scherf et al.
# Submitted via: FreeRIP 2.70 
#
DISCID=a90c970e
DTITLE=Jerry Woodworth - Woodworth
DYEAR=1994
DGENRE=Country
TTITLE0=Where have you gone
TTITLE1=You can't turn back the clock
TTITLE2=Stack of memories
TTITLE3=Close to Jesus
TTITLE4=Our love is for a reason
TTITLE5=Marla Kay
TTITLE6=Someone just like you
TTITLE7=The love that we once knew
TTITLE8=Rose for my lady
TTITLE9=Love me tonight
TTITLE10=The first time
TTITLE11=Bad Girls
TTITLE12=Where have you gone
TTITLE13=Stack of memories
EXTD=
EXTT0=
EXTT1=
EXTT2=
EXTT3=
EXTT4=
EXTT5=
EXTT6=
EXTT7=
EXTT8=
EXTT9=
EXTT10=
EXTT11=
EXTT12=
EXTT13=
PLAYORDER=
